name C:\Users\u0101727\Documents\MyRepositories\upper-imu-dc\Results\main_tracking\Case_14\ABD01_angularVelocities_groundFrame.mot
datacolumns 4
datarows 70
range 4.56000000 5.25000000
endheader 
time	radius_imu_x	radius_imu_y	radius_imu_z	
          4.56000000	         -0.82010735	         -0.27644646	          0.13356746	
          4.57000000	         -0.81551320	         -0.26624812	          0.13203449	
          4.58000000	         -0.81203613	         -0.25629595	          0.13305320	
          4.59000000	         -0.80951745	         -0.24684835	          0.13444626	
          4.60000000	         -0.80778297	         -0.23822663	          0.13387412	
          4.61000000	         -0.80670647	         -0.23077900	          0.12969170	
          4.62000000	         -0.80619443	         -0.22478112	          0.12145237	
          4.63000000	         -0.80613501	         -0.22032854	          0.11000933	
          4.64000000	         -0.80636984	         -0.21728306	          0.09729616	
          4.65000000	         -0.80671462	         -0.21529987	          0.08586219	
          4.66000000	         -0.80700350	         -0.21391171	          0.07821543	
          4.67000000	         -0.80710039	         -0.21262263	          0.07606906	
          4.68000000	         -0.80683981	         -0.21097926	          0.07967594	
          4.69000000	         -0.80592702	         -0.20862059	          0.08750703	
          4.70000000	         -0.80388384	         -0.20531965	          0.09650093	
          4.71000000	         -0.80011385	         -0.20101140	          0.10292692	
          4.72000000	         -0.79408836	         -0.19578629	          0.10362908	
          4.73000000	         -0.78557849	         -0.18983223	          0.09723272	
          4.74000000	         -0.77483457	         -0.18333145	          0.08487296	
          4.75000000	         -0.76262409	         -0.17635311	          0.07009701	
          4.76000000	         -0.75008836	         -0.16880248	          0.05783675	
          4.77000000	         -0.73846867	         -0.16046823	          0.05276396	
          4.78000000	         -0.72881793	         -0.15114893	          0.05771386	
          4.79000000	         -0.72180262	         -0.14078161	          0.07286340	
          4.80000000	         -0.71762737	         -0.12949260	          0.09591279	
          4.81000000	         -0.71604988	         -0.11754882	          0.12298263	
          4.82000000	         -0.71644202	         -0.10525709	          0.14968847	
          4.83000000	         -0.71787832	         -0.09288602	          0.17196386	
          4.84000000	         -0.71925809	         -0.08065736	          0.18649362	
          4.85000000	         -0.71947017	         -0.06880015	          0.19086459	
          4.86000000	         -0.71759100	         -0.05762258	          0.18362842	
          4.87000000	         -0.71308219	         -0.04754787	          0.16441136	
          4.88000000	         -0.70593989	         -0.03908212	          0.13408894	
          4.89000000	         -0.69675358	         -0.03271507	          0.09494238	
          4.90000000	         -0.68664838	         -0.02878048	          0.05065552	
          4.91000000	         -0.67710273	         -0.02731719	          0.00600405	
          4.92000000	         -0.66965826	         -0.02798114	         -0.03382995	
          4.93000000	         -0.66558319	         -0.03005447	         -0.06419245	
          4.94000000	         -0.66558770	         -0.03256859	         -0.08184037	
          4.95000000	         -0.66967876	         -0.03451191	         -0.08549139	
          4.96000000	         -0.67718682	         -0.03505592	         -0.07592594	
          4.97000000	         -0.68694419	         -0.03373257	         -0.05569300	
          4.98000000	         -0.69755830	         -0.03052118	         -0.02855143	
          4.99000000	         -0.70769015	         -0.02583056	          0.00120377	
          5.00000000	         -0.71626042	         -0.02039617	          0.02937680	
          5.01000000	         -0.72254015	         -0.01510682	          0.05237541	
          5.02000000	         -0.72620025	         -0.01087739	          0.06755013	
          5.03000000	         -0.72715839	         -0.00822075	          0.07373690	
          5.04000000	         -0.72558209	         -0.00724768	          0.07124522	
          5.05000000	         -0.72205577	         -0.00805809	          0.06142560	
          5.06000000	         -0.71724899	         -0.01025390	          0.04697450	
          5.07000000	         -0.71174648	         -0.01288590	          0.03162430	
          5.08000000	         -0.70608565	         -0.01488695	          0.01920962	
          5.09000000	         -0.70067565	         -0.01523458	          0.01301384	
          5.10000000	         -0.69580274	         -0.01315540	          0.01525364	
          5.11000000	         -0.69163953	         -0.00824554	          0.02682463	
          5.12000000	         -0.68823660	         -0.00049925	          0.04732579	
          5.13000000	         -0.68547791	          0.00975576	          0.07529346	
          5.14000000	         -0.68302135	          0.02198136	          0.10852820	
          5.15000000	         -0.68026455	          0.03555652	          0.14440986	
          5.16000000	         -0.67638395	          0.04986051	          0.18015752	
          5.17000000	         -0.67047755	          0.06428901	          0.21304614	
          5.18000000	         -0.66179164	          0.07821703	          0.24059733	
          5.19000000	         -0.64996181	          0.09095771	          0.26075581	
          5.20000000	         -0.63518500	          0.10178330	          0.27207852	
          5.21000000	         -0.61825900	          0.11006078	          0.27397812	
          5.22000000	         -0.60046687	          0.11548965	          0.26700112	
          5.23000000	         -0.58333720	          0.11832490	          0.25297960	
          5.24000000	         -0.56834991	          0.11941819	          0.23483907	
          5.25000000	         -0.55666260	          0.11999870	          0.21601351	
